G04 Layer: TopPasteMaskLayer*
G04 EasyEDA v6.3.43, 2020-06-06T13:29:47+03:00*
G04 6caa89d52f454e228c8c87a2f34c76c4,a7937f01353d4e2e93d7d76370f53aae,10*
G04 Gerber Generator version 0.2*
G04 Scale: 100 percent, Rotated: No, Reflected: No *
G04 Dimensions in inches *
G04 leading zeros omitted , absolute positions ,2 integer and 4 decimal *
%FSLAX24Y24*%
%MOIN*%
G90*
G70D02*

%ADD14R,0.118110X0.047244*%
%ADD15R,0.035430X0.039370*%
%ADD16R,0.043000X0.085000*%
%ADD17R,0.138000X0.085000*%
%ADD18R,0.011811X0.015748*%
%ADD19R,0.078740X0.039370*%
%ADD20R,0.039370X0.078740*%

%LPD*%
G54D14*
G01X4334Y8921D03*
G01X4334Y9906D03*
G01X4334Y10693D03*
G01X4334Y11677D03*
G54D15*
G01X13934Y19100D03*
G01X13265Y19100D03*
G01X13934Y17950D03*
G01X13265Y17950D03*
G54D16*
G01X15805Y7519D03*
G01X14895Y7519D03*
G01X13995Y7519D03*
G54D17*
G01X14895Y5080D03*
G54D18*
G01X11942Y19050D03*
G01X12158Y19050D03*
G01X11942Y17950D03*
G01X12158Y17950D03*
G01X13092Y11350D03*
G01X13308Y11350D03*
G01X13092Y11950D03*
G01X13308Y11950D03*
G54D19*
G01X4100Y22397D03*
G01X4100Y21609D03*
G01X4100Y20822D03*
G01X4100Y20034D03*
G01X4100Y19247D03*
G01X4100Y18460D03*
G01X4100Y17672D03*
G01X4100Y16885D03*
G54D20*
G01X5281Y16302D03*
G01X6068Y16303D03*
G01X6856Y16303D03*
G01X7643Y16303D03*
G01X8430Y16303D03*
G01X9218Y16302D03*
G54D19*
G01X10399Y16885D03*
G01X10399Y17672D03*
G01X10400Y18460D03*
G01X10400Y19247D03*
G01X10399Y20035D03*
G01X10400Y20822D03*
G01X10400Y21609D03*
G01X10400Y22397D03*
M00*
M02*
