G04 Layer: BottomSolderMaskLayer*
G04 EasyEDA v6.3.43, 2020-06-06T13:29:47+03:00*
G04 6caa89d52f454e228c8c87a2f34c76c4,a7937f01353d4e2e93d7d76370f53aae,10*
G04 Gerber Generator version 0.2*
G04 Scale: 100 percent, Rotated: No, Reflected: No *
G04 Dimensions in inches *
G04 leading zeros omitted , absolute positions ,2 integer and 4 decimal *
%FSLAX24Y24*%
%MOIN*%
G90*
G70D02*

%ADD32C,0.047370*%
%ADD33C,0.068000*%
%ADD34C,0.070000*%
%ADD38C,0.086740*%

%LPD*%
G54D32*
G01X1661Y12819D02*
G01X1070Y12819D01*
G01X1661Y7780D02*
G01X1070Y7780D01*
G54D33*
G01X11852Y7650D03*
G01X18702Y3900D03*
G01X16752Y3900D03*
G01X19100Y19150D03*
G01X18250Y19150D03*
G01X18300Y22700D03*
G01X19100Y22650D03*
G01X21702Y8350D03*
G01X19802Y8400D03*
G01X9200Y14300D03*
G01X4200Y14300D03*
G01X11050Y4950D03*
G01X5300Y6150D03*
G01X5300Y3800D03*
G54D34*
G01X2200Y20100D03*
G01X22550Y11650D03*
G54D33*
G01X3000Y22900D03*
G54D34*
G01X24250Y23250D03*
G36*
G01X23900Y21300D02*
G01X23900Y22000D01*
G01X24600Y22000D01*
G01X24600Y21300D01*
G01X23900Y21300D01*
G37*
G54D38*
G01X19716Y18579D03*
G01X19716Y16020D03*
G01X21487Y16020D03*
G01X21487Y18579D03*
G01X16666Y17629D03*
G01X16666Y15070D03*
G01X18437Y15070D03*
G01X18437Y17629D03*
G36*
G01X23900Y17300D02*
G01X23900Y18000D01*
G01X24600Y18000D01*
G01X24600Y17300D01*
G01X23900Y17300D01*
G37*
G36*
G01X23900Y19300D02*
G01X23900Y20000D01*
G01X24600Y20000D01*
G01X24600Y19300D01*
G01X23900Y19300D01*
G37*
G36*
G01X23900Y20300D02*
G01X23900Y21000D01*
G01X24600Y21000D01*
G01X24600Y20300D01*
G01X23900Y20300D01*
G37*
G36*
G01X14350Y21250D02*
G01X14350Y21950D01*
G01X15050Y21950D01*
G01X15050Y21250D01*
G01X14350Y21250D01*
G37*
G36*
G01X14350Y22250D02*
G01X14350Y22950D01*
G01X15050Y22950D01*
G01X15050Y22250D01*
G01X14350Y22250D01*
G37*
G36*
G01X23900Y18300D02*
G01X23900Y19000D01*
G01X24600Y19000D01*
G01X24600Y18300D01*
G01X23900Y18300D01*
G37*
G36*
G01X23802Y11000D02*
G01X23802Y11700D01*
G01X24502Y11700D01*
G01X24502Y11000D01*
G01X23802Y11000D01*
G37*
G36*
G01X23802Y9000D02*
G01X23802Y9700D01*
G01X24502Y9700D01*
G01X24502Y9000D01*
G01X23802Y9000D01*
G37*
G36*
G01X23800Y12000D02*
G01X23800Y12700D01*
G01X24500Y12700D01*
G01X24500Y12000D01*
G01X23800Y12000D01*
G37*
G36*
G01X23800Y7000D02*
G01X23800Y7700D01*
G01X24500Y7700D01*
G01X24500Y7000D01*
G01X23800Y7000D01*
G37*
G36*
G01X23800Y6000D02*
G01X23800Y6700D01*
G01X24500Y6700D01*
G01X24500Y6000D01*
G01X23800Y6000D01*
G37*
G36*
G01X23800Y13000D02*
G01X23800Y13700D01*
G01X24500Y13700D01*
G01X24500Y13000D01*
G01X23800Y13000D01*
G37*
G36*
G01X23802Y10000D02*
G01X23802Y10700D01*
G01X24502Y10700D01*
G01X24502Y10000D01*
G01X23802Y10000D01*
G37*
G36*
G01X23802Y8000D02*
G01X23802Y8700D01*
G01X24502Y8700D01*
G01X24502Y8000D01*
G01X23802Y8000D01*
G37*
G36*
G01X4050Y3900D02*
G01X4050Y4600D01*
G01X4750Y4600D01*
G01X4750Y3900D01*
G01X4050Y3900D01*
G37*
G36*
G01X4050Y4900D02*
G01X4050Y5600D01*
G01X4750Y5600D01*
G01X4750Y4900D01*
G01X4050Y4900D01*
G37*
M00*
M02*
