;Layer: Drill PTH
;EasyEDA v6.3.43, 2020-06-06T13:29:47+03:00
;6caa89d52f454e228c8c87a2f34c76c4,a7937f01353d4e2e93d7d76370f53aae,10
;Gerber Generator version 0.2
M48
INCH,LZ,00.0000
;Holesize 1 = 0.024 INCH
T01C0.024
;Holesize 2 = 0.035 INCH
T02C0.035
;Holesize 3 = 0.036 INCH
T03C0.036
;Holesize 4 = 0.047 INCH
T04C0.047
%
G05
G90
T01
X+001167Y+012819G85X+001564Y+012819
X+001167Y+007780G85X+001564Y+007780
T02
X+002200Y+020100
X+022550Y+011650
X+024250Y+023250
X+024250Y+021650
X+024250Y+017650
X+024250Y+019650
X+024250Y+020650
X+014700Y+021600
X+014700Y+022600
X+024250Y+018650
X+024152Y+011350
X+024152Y+009350
X+024150Y+012350
X+024150Y+007350
X+024150Y+006350
X+024150Y+013350
X+024152Y+010350
X+024152Y+008350
X+004400Y+004250
X+004400Y+005250
T03
X+011852Y+007650
X+018702Y+003900
X+016752Y+003900
X+019100Y+019150
X+018250Y+019150
X+018300Y+022700
X+019100Y+022650
X+021702Y+008350
X+019802Y+008400
X+009200Y+014300
X+004200Y+014300
X+011050Y+004950
X+005300Y+006150
X+005300Y+003800
X+003000Y+022900
T04
X+019716Y+018579
X+019716Y+016020
X+021487Y+016020
X+021487Y+018579
X+016666Y+017629
X+016666Y+015070
X+018437Y+015070
X+018437Y+017629
M30
