G04 Layer: TopLayer*
G04 EasyEDA v6.3.43, 2020-06-06T13:29:47+03:00*
G04 6caa89d52f454e228c8c87a2f34c76c4,a7937f01353d4e2e93d7d76370f53aae,10*
G04 Gerber Generator version 0.2*
G04 Scale: 100 percent, Rotated: No, Reflected: No *
G04 Dimensions in inches *
G04 leading zeros omitted , absolute positions ,2 integer and 4 decimal *
%FSLAX24Y24*%
%MOIN*%
G90*
G70D02*

%ADD10C,0.010000*%
%ADD11C,0.040000*%
%ADD12C,0.020000*%
%ADD13C,0.030000*%
%ADD14R,0.118110X0.047244*%
%ADD15R,0.035430X0.039370*%
%ADD16R,0.043000X0.085000*%
%ADD17R,0.138000X0.085000*%
%ADD18R,0.011811X0.015748*%
%ADD19R,0.078740X0.039370*%
%ADD20R,0.039370X0.078740*%
%ADD21C,0.060000*%
%ADD22C,0.062000*%
%ADD23R,0.062000X0.062000*%
%ADD24C,0.078740*%
%ADD25C,0.039370*%

%LPD*%
G54D11*
G01X24150Y13350D02*
G01X26902Y13350D01*
G01X26902Y3450D01*
G01X21552Y3450D01*
G01X21552Y550D01*
G01X6350Y550D01*
G01X6350Y13700D01*
G01X5281Y13700D01*
G01X5281Y16302D01*
G01X24152Y11350D02*
G01X26302Y11350D01*
G01X26302Y4100D01*
G01X20952Y4100D01*
G01X20952Y1250D01*
G01X11500Y1250D01*
G01X7050Y1250D01*
G01X7050Y14300D01*
G01X6069Y14300D01*
G01X6069Y16303D01*
G01X24150Y12350D02*
G01X23100Y12350D01*
G01X23100Y11650D01*
G01X22550Y11650D01*
G01X24152Y8350D02*
G01X21450Y8350D01*
G01X21450Y12550D01*
G01X22400Y12550D01*
G01X2200Y20100D02*
G01X2200Y19300D01*
G01X4100Y19300D01*
G01X4100Y19247D01*
G01X4100Y18459D02*
G01X1250Y18459D01*
G01X1250Y27650D01*
G01X18300Y27650D01*
G01X18300Y22700D01*
G01X15652Y28450D02*
G01X550Y28411D01*
G01X550Y17673D01*
G01X4100Y17673D01*
G01X24152Y10350D02*
G01X25702Y10350D01*
G01X25702Y4750D01*
G01X20302Y4750D01*
G01X20302Y1950D01*
G01X7800Y1950D01*
G01X7800Y15600D01*
G01X8431Y15600D01*
G01X8431Y16303D01*
G01X24125Y6275D02*
G01X18699Y6300D01*
G01X18699Y6300D01*
G01X18699Y6300D02*
G01X18701Y6150D01*
G01X18701Y3800D01*
G01X4639Y3800D02*
G01X3550Y3800D01*
G01X3550Y6800D01*
G01X4750Y6800D01*
G01X4750Y8650D01*
G01X5300Y3800D02*
G01X4400Y3800D01*
G01X4400Y4250D01*
G01X5300Y6150D02*
G01X5350Y6150D01*
G01X5350Y5250D01*
G01X4400Y5250D01*
G01X5300Y6150D02*
G01X5700Y6150D01*
G01X5700Y11700D01*
G01X4334Y11700D01*
G01X4334Y11678D01*
G01X9218Y16303D02*
G01X9218Y15000D01*
G01X8450Y15000D01*
G01X8450Y2550D01*
G01X19652Y2550D01*
G01X19652Y5350D01*
G01X25152Y5350D01*
G01X25152Y9400D01*
G01X24152Y9400D01*
G01X24152Y9350D01*
G54D12*
G01X11850Y17950D02*
G01X11150Y17950D01*
G01X11150Y17671D01*
G01X10400Y17673D01*
G54D11*
G01X10400Y22396D02*
G01X10400Y22600D01*
G01X14700Y22600D01*
G01X10400Y21609D02*
G01X14690Y21609D01*
G01X14700Y21600D01*
G01X14750Y21650D01*
G01X14700Y21650D01*
G54D12*
G01X13400Y11950D02*
G01X14900Y11950D01*
G01X14900Y16021D01*
G01X19716Y16021D01*
G01X12980Y12700D02*
G01X12980Y11300D01*
G54D11*
G01X13934Y17950D02*
G01X14000Y17950D01*
G01X14000Y12700D01*
G01X10952Y12700D01*
G01X10952Y10900D01*
G01X16752Y3900D02*
G01X12200Y3900D01*
G01X11150Y4950D01*
G01X11050Y4950D01*
G01X10952Y5048D01*
G01X10952Y10900D01*
G54D12*
G01X16666Y15071D02*
G01X16666Y11350D01*
G01X13308Y11350D01*
G01X12250Y17950D02*
G01X13265Y17950D01*
G01X12250Y19100D02*
G01X12250Y19100D01*
G01X13265Y19100D01*
G01X10400Y18459D02*
G01X11850Y18459D01*
G01X11850Y19050D01*
G54D11*
G01X10400Y20823D02*
G01X23400Y20823D01*
G01X23400Y20650D01*
G01X24250Y20650D01*
G01X10400Y20034D02*
G01X23150Y20034D01*
G01X23150Y19650D01*
G01X24250Y19650D01*
G01X21759Y13350D02*
G01X20665Y13350D01*
G01X20665Y6440D01*
G01X21758Y13350D02*
G01X21758Y15250D01*
G01X24250Y15250D01*
G01X24250Y17650D01*
G01X19802Y15071D02*
G01X20850Y15071D01*
G01X20850Y16021D01*
G01X21488Y16021D01*
G01X19802Y10550D02*
G01X19802Y9550D01*
G01X15150Y9550D01*
G01X21487Y16020D02*
G01X22300Y16020D01*
G01X22300Y18750D01*
G01X24250Y18750D01*
G01X24250Y18650D01*
G01X19800Y10400D02*
G01X19800Y15000D01*
G01X14895Y7519D02*
G01X14895Y9550D01*
G01X17852Y9550D01*
G01X17852Y3250D01*
G01X9200Y3250D01*
G01X9200Y14300D01*
G01X4100Y16884D02*
G01X3650Y16884D01*
G01X3650Y14300D01*
G01X4200Y14300D01*
G01X18250Y19150D02*
G01X16666Y17629D01*
G01X16666Y17629D01*
G01X10399Y16885D02*
G01X14000Y16885D01*
G01X14000Y16839D01*
G54D10*
G01X11941Y19050D02*
G01X11941Y19000D01*
G54D13*
G01X13934Y17950D02*
G01X13934Y19100D01*
G01X13934Y19100D01*
G54D11*
G01X18437Y15070D02*
G01X19802Y15070D01*
G01X19802Y14350D01*
G01X15652Y28450D02*
G01X19100Y28450D01*
G01X19100Y22650D01*
G01X19716Y18579D02*
G01X19716Y19150D01*
G01X19100Y19150D01*
G01X15805Y7519D02*
G01X16752Y7519D01*
G01X16752Y3900D01*
G01X24150Y7350D02*
G01X21752Y7350D01*
G01X21702Y7400D01*
G01X21702Y7400D02*
G01X21702Y8350D01*
G01X19802Y8505D02*
G01X19802Y9550D01*
G01X14895Y7519D02*
G01X14869Y7519D01*
G01X14869Y9550D01*
G54D13*
G01X11852Y7650D02*
G01X13402Y7650D01*
G01X13995Y7650D01*
G01X13995Y7519D01*
G54D11*
G01X4100Y21609D02*
G01X3000Y21609D01*
G01X3000Y22900D01*
G01X4100Y20034D02*
G01X3350Y20050D01*
G01X2000Y21250D01*
G01X2000Y26850D01*
G01X17300Y26850D01*
G01X17300Y21950D01*
G01X21600Y21950D01*
G01X21600Y24400D01*
G01X26950Y24400D01*
G01X26950Y14450D01*
G01X22400Y14450D01*
G01X22400Y12550D01*
G01X24250Y23250D02*
G01X24250Y21650D01*
G54D14*
G01X4334Y8921D03*
G01X4334Y9906D03*
G01X4334Y10693D03*
G01X4334Y11677D03*
G54D15*
G01X13934Y19100D03*
G01X13265Y19100D03*
G01X13934Y17950D03*
G01X13265Y17950D03*
G54D16*
G01X15805Y7519D03*
G01X14895Y7519D03*
G01X13995Y7519D03*
G54D17*
G01X14895Y5080D03*
G54D18*
G01X11942Y19050D03*
G01X12158Y19050D03*
G01X11942Y17950D03*
G01X12158Y17950D03*
G01X13092Y11350D03*
G01X13308Y11350D03*
G01X13092Y11950D03*
G01X13308Y11950D03*
G54D19*
G01X4100Y22397D03*
G01X4100Y21609D03*
G01X4100Y20822D03*
G01X4100Y20034D03*
G01X4100Y19247D03*
G01X4100Y18460D03*
G01X4100Y17672D03*
G01X4100Y16885D03*
G54D20*
G01X5281Y16302D03*
G01X6068Y16303D03*
G01X6856Y16303D03*
G01X7643Y16303D03*
G01X8430Y16303D03*
G01X9218Y16302D03*
G54D19*
G01X10399Y16885D03*
G01X10399Y17672D03*
G01X10400Y18460D03*
G01X10400Y19247D03*
G01X10399Y20035D03*
G01X10400Y20822D03*
G01X10400Y21609D03*
G01X10400Y22397D03*
G54D21*
G01X11852Y7650D03*
G01X18702Y3900D03*
G01X16752Y3900D03*
G01X19100Y19150D03*
G01X18250Y19150D03*
G01X18300Y22700D03*
G01X19100Y22650D03*
G01X21702Y8350D03*
G01X19802Y8400D03*
G01X9200Y14300D03*
G01X4200Y14300D03*
G01X11050Y4950D03*
G01X5300Y6150D03*
G01X5300Y3800D03*
G54D22*
G01X2200Y20100D03*
G01X22550Y11650D03*
G54D21*
G01X3000Y22900D03*
G54D22*
G01X24250Y23250D03*
G54D23*
G01X24250Y21650D03*
G54D24*
G01X19716Y18579D03*
G01X19716Y16020D03*
G01X21487Y16020D03*
G01X21487Y18579D03*
G01X16666Y17629D03*
G01X16666Y15070D03*
G01X18437Y15070D03*
G01X18437Y17629D03*
G54D23*
G01X24250Y17650D03*
G01X24250Y19650D03*
G01X24250Y20650D03*
G01X14700Y21600D03*
G01X14700Y22600D03*
G01X24250Y18650D03*
G01X24152Y11350D03*
G01X24152Y9350D03*
G01X24150Y12350D03*
G01X24150Y7350D03*
G01X24150Y6350D03*
G01X24150Y13350D03*
G01X24152Y10350D03*
G01X24152Y8350D03*
G01X4400Y4250D03*
G01X4400Y5250D03*
G54D25*
G01X1661Y12819D02*
G01X1070Y12819D01*
G01X1661Y7780D02*
G01X1070Y7780D01*
M00*
M02*
